<svg xmlns="http://www.w3.org/2000/svg" id="Layer_1" data-name="Layer 1" viewBox="0 0 300 171"><defs><style>.cls-1{fill:#434d56;}.cls-2{fill:#f41e1e;}</style></defs><path class="cls-1" d="M145.53,68.33A38.18,38.18,0,0,1,93.34,92,20.93,20.93,0,1,0,72.18,67.34a38.17,38.17,0,0,1,47.15-46.9l17-13a56.81,56.81,0,1,0,29.46,49.8c0-1.44-.07-2.86-.17-4.27Z"></path><path class="cls-2" d="M154.47,46.07a38.18,38.18,0,0,1,52.19-23.7,20.93,20.93,0,1,0,21.16,24.69A38.17,38.17,0,0,1,180.67,94l-17,13a56.81,56.81,0,1,0-29.46-49.8c0,1.44.07,2.86.17,4.27Z"></path><path class="cls-1" d="M0,140.45c2.85-.17,5.62-.65,8.67-.65,2.28,0,5.05.24,6.84,1.79A7.91,7.91,0,0,1,18,147.78,6.38,6.38,0,0,1,13.92,154c4,.65,6,3.63,5.9,7.7a8.61,8.61,0,0,1-3.13,6.83c-2,1.55-5,2-9.16,1.71C6,170.12,4.52,170,3,170c-1,0-2,0-3,.08Zm6.35,12c3.05.28,5.21.2,5.21-3.54,0-3.43-2.16-3.91-5.21-3.1Zm0,12c4.15.93,6.07-.45,6-3.51-.05-3.9-2.57-4.43-6-4Z"></path><path class="cls-1" d="M22.63,170V140.45h6.43v23.81h7.21V170Z"></path><path class="cls-1" d="M39.44,140.45h6.64V170H39.44Z"></path><path class="cls-1" d="M60.77,168.62l-4.56-12.78V170H49.78V140.45h6.8l4.19,13.31,4.15-13.31h6.8V170H65.29v-14.2Z"></path><path class="cls-1" d="M75.3,170V140.45H88.66V146H81.82v6.48h6.51v5.29H81.82v6.47h6.84V170Z"></path><path class="cls-1" d="M90.89,140.45H98.1l4,12.86L106,140.45h7.24l-7.94,20V170H98.75v-9.56Z"></path><path class="cls-1" d="M125.37,162.23c2,3.46,7.69,4.92,8.35,1.3a4.28,4.28,0,0,0-1.76-4.19c-2.72-1.88-6.59-1.63-8.06-5.74a13.13,13.13,0,0,1,.29-8.39c1.47-3.3,4.6-5.74,9.73-5.54a8.86,8.86,0,0,1,4.76,1.67l-.93,7.62c-1.06-2.24-2.57-2.9-3.91-2.94a3.73,3.73,0,0,0-3.91,3.75c-.16,2.12.85,3.18,2.77,4,4,1.67,7,2.69,7.57,8a9.67,9.67,0,0,1-1.22,5.82c-1.55,2.36-4.4,3.05-7,3.05a14.31,14.31,0,0,1-7.13-1.83Z"></path><path class="cls-1" d="M142.26,155.14c0-7.41,2.77-15.51,11.4-15.47S165,147.73,165,155.14s-2.61,15.51-11.32,15.47S142.34,162.63,142.26,155.14Zm6.84.08c0,4.08.82,9.94,4.56,10.1,3.71-.16,4.52-6,4.52-10.1s-.81-9.24-4.52-9.48C149.92,146,149.1,151.19,149.1,155.22Z"></path><path class="cls-1" d="M168,170V140.45h6.43v23.81h7.2V170Z"></path><path class="cls-1" d="M184.23,161.9V140.45h6.51v21.08c0,2,.17,3.59,2.85,3.59s2.81-1.59,2.85-3.59V140.45H203V161.9c0,6-3.34,8.71-9.37,8.71S184.23,167.92,184.23,161.9Z"></path><path class="cls-1" d="M205.72,146l.45-5.57h17.3L224,146h-5.66v24h-6.67V146Z"></path><path class="cls-1" d="M226.89,140.45h6.63V170h-6.63Z"></path><path class="cls-1" d="M236.58,155.14c0-7.41,2.76-15.51,11.39-15.47s11.36,8.06,11.32,15.47-2.6,15.51-11.32,15.47S236.66,162.63,236.58,155.14Zm6.83.08c0,4.08.82,9.94,4.56,10.1,3.71-.16,4.52-6,4.52-10.1s-.81-9.24-4.52-9.48C244.23,146,243.41,151.19,243.41,155.22Z"></path><path class="cls-1" d="M262.26,170V140.45h5.5L274,155V140.45h6.26V170H275l-6.43-14.49V170Z"></path><path class="cls-1" d="M285.05,162.23c2,3.46,7.7,4.92,8.35,1.3a4.29,4.29,0,0,0-1.75-4.19c-2.73-1.88-6.6-1.63-8.06-5.74a13.07,13.07,0,0,1,.28-8.39c1.47-3.3,4.6-5.74,9.73-5.54a8.86,8.86,0,0,1,4.77,1.67l-.94,7.62c-1.06-2.24-2.56-2.9-3.91-2.94a3.73,3.73,0,0,0-3.91,3.75c-.16,2.12.86,3.18,2.77,4,4,1.67,7,2.69,7.57,8a9.53,9.53,0,0,1-1.22,5.82c-1.54,2.36-4.39,3.05-7,3.05a14.3,14.3,0,0,1-7.12-1.83Z"></path></svg>